<svg width="55" height="16" viewBox="0 0 55 16" fill="none" xmlns="http://www.w3.org/2000/svg">
<path d="M1.718 15C1.454 15 1.232 14.91 1.052 14.73C0.884 14.55 0.8 14.328 0.8 14.064V1.878C0.8 1.614 0.89 1.392 1.07 1.212C1.25 1.032 1.466 0.942 1.718 0.942C1.982 0.942 2.204 1.032 2.384 1.212C2.564 1.392 2.654 1.614 2.654 1.878V13.128H9.17C9.434 13.128 9.656 13.218 9.836 13.398C10.016 13.578 10.106 13.8 10.106 14.064C10.106 14.328 10.016 14.55 9.836 14.73C9.656 14.91 9.434 15 9.17 15H1.718ZM17.5812 15.18C16.5252 15.18 15.5592 15.006 14.6832 14.658C13.8072 14.298 13.0512 13.8 12.4152 13.164C11.7912 12.516 11.3052 11.754 10.9572 10.878C10.6092 9.99 10.4352 9.018 10.4352 7.962C10.4352 6.906 10.6092 5.94 10.9572 5.064C11.3052 4.188 11.7912 3.432 12.4152 2.796C13.0512 2.148 13.8072 1.65 14.6832 1.302C15.5592 0.942 16.5252 0.762 17.5812 0.762C18.6372 0.762 19.5972 0.942 20.4612 1.302C21.3372 1.65 22.0932 2.148 22.7292 2.796C23.3652 3.432 23.8572 4.188 24.2052 5.064C24.5532 5.94 24.7272 6.906 24.7272 7.962C24.7272 9.018 24.5532 9.99 24.2052 10.878C23.8572 11.754 23.3652 12.516 22.7292 13.164C22.0932 13.8 21.3372 14.298 20.4612 14.658C19.5972 15.006 18.6372 15.18 17.5812 15.18ZM17.5812 13.488C18.3612 13.488 19.0752 13.35 19.7232 13.074C20.3832 12.786 20.9532 12.396 21.4332 11.904C21.9132 11.4 22.2792 10.812 22.5312 10.14C22.7952 9.468 22.9272 8.742 22.9272 7.962C22.9272 7.182 22.7952 6.456 22.5312 5.784C22.2792 5.112 21.9132 4.53 21.4332 4.038C20.9532 3.534 20.3832 3.144 19.7232 2.868C19.0752 2.592 18.3612 2.454 17.5812 2.454C16.8012 2.454 16.0812 2.592 15.4212 2.868C14.7732 3.144 14.2092 3.534 13.7292 4.038C13.2612 4.53 12.8952 5.112 12.6312 5.784C12.3672 6.456 12.2352 7.182 12.2352 7.962C12.2352 8.742 12.3672 9.468 12.6312 10.14C12.8952 10.812 13.2612 11.4 13.7292 11.904C14.2092 12.396 14.7732 12.786 15.4212 13.074C16.0812 13.35 16.8012 13.488 17.5812 13.488ZM33.6078 15.18C32.6358 15.18 31.7238 15 30.8718 14.64C30.0318 14.268 29.2938 13.758 28.6578 13.11C28.0338 12.45 27.5418 11.682 27.1818 10.806C26.8338 9.93 26.6598 8.982 26.6598 7.962C26.6598 6.954 26.8338 6.018 27.1818 5.154C27.5418 4.278 28.0338 3.516 28.6578 2.868C29.2938 2.208 30.0318 1.692 30.8718 1.32C31.7118 0.948 32.6238 0.762 33.6078 0.762C34.5318 0.762 35.3238 0.882 35.9838 1.122C36.6558 1.362 37.3278 1.758 37.9998 2.31C38.0958 2.382 38.1678 2.46 38.2158 2.544C38.2758 2.616 38.3118 2.694 38.3238 2.778C38.3478 2.85 38.3598 2.94 38.3598 3.048C38.3598 3.276 38.2758 3.468 38.1078 3.624C37.9518 3.78 37.7538 3.864 37.5138 3.876C37.2858 3.888 37.0698 3.81 36.8658 3.642C36.4218 3.258 35.9598 2.964 35.4798 2.76C35.0118 2.556 34.3878 2.454 33.6078 2.454C32.8998 2.454 32.2338 2.598 31.6098 2.886C30.9858 3.174 30.4338 3.57 29.9538 4.074C29.4858 4.578 29.1198 5.166 28.8558 5.838C28.5918 6.498 28.4598 7.206 28.4598 7.962C28.4598 8.73 28.5918 9.45 28.8558 10.122C29.1198 10.782 29.4858 11.364 29.9538 11.868C30.4338 12.372 30.9858 12.768 31.6098 13.056C32.2338 13.332 32.8998 13.47 33.6078 13.47C34.2198 13.47 34.7958 13.368 35.3358 13.164C35.8878 12.948 36.4158 12.654 36.9198 12.282C37.1358 12.126 37.3458 12.06 37.5498 12.084C37.7658 12.096 37.9458 12.18 38.0898 12.336C38.2338 12.48 38.3058 12.684 38.3058 12.948C38.3058 13.068 38.2818 13.188 38.2338 13.308C38.1978 13.416 38.1258 13.518 38.0178 13.614C37.3818 14.142 36.6918 14.538 35.9478 14.802C35.2038 15.054 34.4238 15.18 33.6078 15.18ZM38.3058 12.948L36.5058 12.588V9.366H34.0218C33.7578 9.366 33.5358 9.288 33.3558 9.132C33.1758 8.976 33.0858 8.778 33.0858 8.538C33.0858 8.298 33.1758 8.1 33.3558 7.944C33.5358 7.788 33.7578 7.71 34.0218 7.71H37.3878C37.6638 7.71 37.8858 7.8 38.0538 7.98C38.2218 8.148 38.3058 8.37 38.3058 8.646V12.948ZM47.798 15.18C46.742 15.18 45.776 15.006 44.9 14.658C44.024 14.298 43.268 13.8 42.632 13.164C42.008 12.516 41.522 11.754 41.174 10.878C40.826 9.99 40.652 9.018 40.652 7.962C40.652 6.906 40.826 5.94 41.174 5.064C41.522 4.188 42.008 3.432 42.632 2.796C43.268 2.148 44.024 1.65 44.9 1.302C45.776 0.942 46.742 0.762 47.798 0.762C48.854 0.762 49.814 0.942 50.678 1.302C51.554 1.65 52.31 2.148 52.946 2.796C53.582 3.432 54.074 4.188 54.422 5.064C54.77 5.94 54.944 6.906 54.944 7.962C54.944 9.018 54.77 9.99 54.422 10.878C54.074 11.754 53.582 12.516 52.946 13.164C52.31 13.8 51.554 14.298 50.678 14.658C49.814 15.006 48.854 15.18 47.798 15.18ZM47.798 13.488C48.578 13.488 49.292 13.35 49.94 13.074C50.6 12.786 51.17 12.396 51.65 11.904C52.13 11.4 52.496 10.812 52.748 10.14C53.012 9.468 53.144 8.742 53.144 7.962C53.144 7.182 53.012 6.456 52.748 5.784C52.496 5.112 52.13 4.53 51.65 4.038C51.17 3.534 50.6 3.144 49.94 2.868C49.292 2.592 48.578 2.454 47.798 2.454C47.018 2.454 46.298 2.592 45.638 2.868C44.99 3.144 44.426 3.534 43.946 4.038C43.478 4.53 43.112 5.112 42.848 5.784C42.584 6.456 42.452 7.182 42.452 7.962C42.452 8.742 42.584 9.468 42.848 10.14C43.112 10.812 43.478 11.4 43.946 11.904C44.426 12.396 44.99 12.786 45.638 13.074C46.298 13.35 47.018 13.488 47.798 13.488Z" fill="black"/>
</svg>
